# xmcd
#
# Track frame offsets:
#	150
#	16515
#	20739
#	33030
#	45649
#	67183
#	92047
#	107745
#	129754
#	141475
#	158429
#	173860
#	183213
#	196057
#
# Disc length: 2766 seconds
#
# Revision: 0
# Processed by: cddbd v1.5.2PL0 Copyright (c) Steve Scherf et al.
# Submitted via: audiograbber 1.83.01
#
DISCID=aa0acc0e
DTITLE=Various Artist - Blues Breakers
DYEAR=2000
DGENRE=Blues
TTITLE0=Muddy Waters (Little Walter On Harmonica) - Mannish Boy
TTITLE1=Mississippi John Hurt - Chicken Blues
TTITLE2=John Lee Hooker - I'm In The Mood
TTITLE3=Elmore James - The Sky Is Crying
TTITLE4=Brownie Mc Ghee and Sonny Terry - Blues For The Lowlands
TTITLE5=Ike and Tina Turner - All I Can Do Is Cry
TTITLE6=Lightnin' Hopkins - Coffee For Mama
TTITLE7=John Mayall - A Big Man
TTITLE8=Eric Clapton - Draggin' My Tail
TTITLE9=Etta James - Dust Your Broom
TTITLE10=Big Joe Williams - Nobody Knows You When Your Down
TTITLE11=Canned Heat - Big Road Blues
TTITLE12=Nina Simone - Backlash Blues
TTITLE13=Lightning Slim - Lightning's Bad Luck
EXTD=
EXTT0=
EXTT1=
EXTT2=
EXTT3=
EXTT4=
EXTT5=
EXTT6=
EXTT7=
EXTT8=
EXTT9=
EXTT10=
EXTT11=
EXTT12=
EXTT13=
PLAYORDER=
